<svg width="87" height="62" viewBox="0 0 87 62" fill="none" xmlns="http://www.w3.org/2000/svg">
<path fill-rule="evenodd" clip-rule="evenodd" d="M2.17488 0.917746C0.652464 0.917746 0.0906202 2.92346 0 3.92631C3.66434 25.8608 4.91474 38.2695 6.52464 60.4873C6.23457 60.453 8.69953 63.195 11.4181 60.4873C11.4181 52.0634 10.8744 46.0311 10.8744 46.0311C14.9248 42.9129 32.201 37.4244 45.1237 33.319L45.1241 33.3189L45.1356 33.3152C48.1678 32.3519 50.9598 31.4649 53.2846 30.7026L54.1002 33.1094C75.849 24.6854 87.2671 15.058 86.9953 12.0494C86.7234 9.04087 73.4447 4.7033 52.469 3.92631C52.7409 1.8203 51.6534 -0.195441 49.7504 0.0151779C30.9119 2.09996 10.4417 1.25031 4.0638 0.985583L4.06354 0.985572L4.06352 0.985571C3.07838 0.944679 2.42951 0.917746 2.17488 0.917746ZM10.8744 38.8105C9.92556 26.9055 9.06284 20.3108 6.7965 8.72485C6.7965 8.72485 9.96759 16.658 10.8744 22.5643C11.8428 28.8715 10.8744 38.8105 10.8744 38.8105ZM22.1467 22.2975L27.5235 21.2483L27.0173 18.0713L21.6405 19.1205L20.8666 14.2639L26.8906 13.0885L26.3823 9.89844L16.8993 11.7489L19.9199 30.7066L23.3789 30.0316L22.1467 22.2975ZM41.6214 18.1223C41.9726 20.3265 41.7729 22.1302 41.0221 23.5333C40.2782 24.935 39.0701 25.7991 37.3979 26.1254C35.7324 26.4504 34.3279 26.1039 33.1844 25.086C32.0398 24.0605 31.2874 22.462 30.9274 20.2905L30.4797 17.4808C30.1201 15.2239 30.3121 13.3713 31.0556 11.9231C31.7979 10.4674 33.0086 9.57565 34.6877 9.24801C36.3396 8.92568 37.7408 9.29609 38.8915 10.3591C40.041 11.4147 40.8017 13.0658 41.1737 15.3126L41.6214 18.1223ZM38.1747 15.9559C37.9385 14.474 37.5726 13.409 37.0768 12.7611C36.5811 12.1131 35.9322 11.8675 35.13 12.024C34.3346 12.1792 33.8024 12.6437 33.5331 13.4176C33.2628 14.1841 33.2341 15.2795 33.447 16.704L33.9127 19.6266C34.1416 21.0634 34.5043 22.0864 35.0009 22.6953C35.4963 23.2968 36.1484 23.5186 36.9573 23.3607C37.7391 23.2082 38.2676 22.7638 38.5428 22.0275C38.8168 21.2837 38.8457 20.2115 38.6296 18.8109L38.1747 15.9559ZM52.4159 20.4209C53.0703 19.1977 53.2445 17.6253 52.9383 15.7037L52.548 13.2541C52.2237 11.2955 51.5605 9.85604 50.5584 8.93578C49.5552 8.00896 48.3336 7.68608 46.8935 7.96708C45.4297 8.25271 44.3742 9.03013 43.7271 10.2992C43.0789 11.5618 42.9115 13.1768 43.225 15.1444L43.6153 17.5939C43.9292 19.487 44.585 20.8805 45.583 21.7745C46.5798 22.662 47.8042 22.9641 49.2562 22.6807C50.7141 22.3962 51.7673 21.6429 52.4159 20.4209ZM48.9763 11.0297C49.4086 11.5946 49.7276 12.523 49.9335 13.815L50.33 16.3039C50.5185 17.5249 50.4932 18.4597 50.2544 19.1082C50.0144 19.7501 49.5537 20.1375 48.8722 20.2705C48.167 20.4081 47.5984 20.2148 47.1666 19.6904C46.7337 19.1595 46.4174 18.2678 46.2178 17.015L45.8119 14.4672C45.6262 13.2253 45.6513 12.2703 45.887 11.6022C46.1217 10.9275 46.5858 10.5224 47.2791 10.3872C47.9784 10.2507 48.5442 10.4649 48.9763 11.0297ZM57.3038 23.3107L55.2898 10.6722L58.3096 10.083C59.6434 9.82272 60.7798 10.0843 61.7182 10.8677C62.6627 11.6501 63.2727 12.8557 63.5484 14.4846L63.8746 16.5331C64.1394 18.1939 63.9496 19.5764 63.3064 20.6805C62.667 21.7779 61.6519 22.4622 60.261 22.7336L57.3038 23.3107ZM57.935 12.3489L59.2726 20.7427L59.9625 20.608C60.7314 20.458 61.237 20.1296 61.4795 19.6228C61.7215 19.1102 61.7628 18.3026 61.6035 17.2001L61.2533 15.004C61.0652 13.8235 60.7852 13.0308 60.4133 12.626C60.0408 12.2154 59.4944 12.0685 58.774 12.1851L57.935 12.3489ZM72.4454 17.876L68.3664 18.6719L71.1252 10.0743L70.9175 8.77283L64.5343 10.0184L64.8284 11.8616L68.9069 11.0657L66.1083 19.6323L66.3204 20.9638L72.7379 19.7116L72.4454 17.876Z" fill="white"/>
</svg>
